<svg width="64" height="64" viewBox="0 0 64 64" fill="none" xmlns="http://www.w3.org/2000/svg">
  <rect width="64" height="64" rx="8" fill="#F3F4F6"/>
  <path d="M32 16C23.1634 16 16 23.1634 16 32C16 40.8366 23.1634 48 32 48C40.8366 48 48 40.8366 48 32C48 23.1634 40.8366 16 32 16ZM32 44C25.3726 44 20 38.6274 20 32C20 25.3726 25.3726 20 32 20C38.6274 20 44 25.3726 44 32C44 38.6274 38.6274 44 32 44Z" fill="#9CA3AF"/>
  <path d="M32 24C28.6863 24 26 26.6863 26 30C26 33.3137 28.6863 36 32 36C35.3137 36 38 33.3137 38 30C38 26.6863 35.3137 24 32 24ZM32 34C29.7909 34 28 32.2091 28 30C28 27.7909 29.7909 26 32 26C34.2091 26 36 27.7909 36 30C36 32.2091 34.2091 34 32 34Z" fill="#9CA3AF"/>
</svg> 